<svg width="25" height="23" viewBox="0 0 25 23" fill="none" xmlns="http://www.w3.org/2000/svg">
<path d="M23.8563 6.35862C23.7125 6.14138 23.4969 6.06897 23.2812 6.06897H16.8125C16.3813 6.06897 16.0938 6.35862 16.0938 6.7931C16.0938 7.22759 16.3813 7.51724 16.8125 7.51724H22.3469L20.55 14.0345H6.60625L5.3125 7.51724H11.0625C11.4937 7.51724 11.7812 7.22759 11.7812 6.7931C11.7812 6.35862 11.4937 6.06897 11.0625 6.06897H5.025L4.59375 3.75172C4.59375 3.6069 4.52187 3.46207 4.37812 3.38966L2.22187 1.21724C1.93437 0.927586 1.50313 0.927586 1.21563 1.21724C0.928125 1.5069 0.928125 1.94138 1.21563 2.23103L3.22813 4.25862L5.3125 14.9034C5.38438 15.2655 5.67188 15.4828 6.03125 15.4828H21.125C21.4844 15.4828 21.7 15.2655 21.8438 14.9759L24 7.01034C24 6.7931 24 6.50345 23.8563 6.35862Z" fill="black" stroke="white" stroke-width="0.5"/>
<path fill-rule="evenodd" clip-rule="evenodd" d="M6.75 19.1034C6.75 17.5103 8.04375 16.2069 9.625 16.2069C11.2063 16.2069 12.5 17.5103 12.5 19.1034C12.5 20.6966 11.2063 22 9.625 22C8.04375 22 6.75 20.6966 6.75 19.1034ZM8.1875 19.1034C8.1875 19.9 8.83437 20.5517 9.625 20.5517C10.4156 20.5517 11.0625 19.9 11.0625 19.1034C11.0625 18.3069 10.4156 17.6552 9.625 17.6552C8.83437 17.6552 8.1875 18.3069 8.1875 19.1034Z" fill="black"/>
<path d="M9.625 15.9569C7.90392 15.9569 6.5 17.374 6.5 19.1034H7C7 17.6467 8.18358 16.4569 9.625 16.4569V15.9569ZM12.75 19.1034C12.75 17.374 11.3461 15.9569 9.625 15.9569V16.4569C11.0664 16.4569 12.25 17.6467 12.25 19.1034H12.75ZM9.625 22.25C11.3461 22.25 12.75 20.8329 12.75 19.1034H12.25C12.25 20.5602 11.0664 21.75 9.625 21.75V22.25ZM6.5 19.1034C6.5 20.8329 7.90392 22.25 9.625 22.25V21.75C8.18358 21.75 7 20.5602 7 19.1034H6.5ZM9.625 20.3017C8.9742 20.3017 8.4375 19.7637 8.4375 19.1034H7.9375C7.9375 20.0363 8.69455 20.8017 9.625 20.8017V20.3017ZM10.8125 19.1034C10.8125 19.7637 10.2758 20.3017 9.625 20.3017V20.8017C10.5555 20.8017 11.3125 20.0363 11.3125 19.1034H10.8125ZM9.625 17.9052C10.2758 17.9052 10.8125 18.4432 10.8125 19.1034H11.3125C11.3125 18.1706 10.5555 17.4052 9.625 17.4052V17.9052ZM8.4375 19.1034C8.4375 18.4432 8.9742 17.9052 9.625 17.9052V17.4052C8.69455 17.4052 7.9375 18.1706 7.9375 19.1034H8.4375Z" fill="white"/>
<path fill-rule="evenodd" clip-rule="evenodd" d="M14.6562 19.1034C14.6562 17.5103 15.95 16.2069 17.5312 16.2069C19.1125 16.2069 20.4062 17.5103 20.4062 19.1034C20.4062 20.6966 19.1125 22 17.5312 22C15.95 22 14.6562 20.6966 14.6562 19.1034ZM16.0938 19.1034C16.0938 19.9 16.7406 20.5517 17.5312 20.5517C18.3219 20.5517 18.9688 19.9 18.9688 19.1034C18.9688 18.3069 18.3219 17.6552 17.5312 17.6552C16.7406 17.6552 16.0938 18.3069 16.0938 19.1034Z" fill="black"/>
<path d="M17.5312 15.9569C15.8102 15.9569 14.4062 17.374 14.4062 19.1034H14.9062C14.9062 17.6467 16.0898 16.4569 17.5312 16.4569V15.9569ZM20.6562 19.1034C20.6562 17.374 19.2523 15.9569 17.5312 15.9569V16.4569C18.9727 16.4569 20.1562 17.6467 20.1562 19.1034H20.6562ZM17.5312 22.25C19.2523 22.25 20.6562 20.8329 20.6562 19.1034H20.1562C20.1562 20.5602 18.9727 21.75 17.5312 21.75V22.25ZM14.4062 19.1034C14.4062 20.8329 15.8102 22.25 17.5312 22.25V21.75C16.0898 21.75 14.9062 20.5602 14.9062 19.1034H14.4062ZM17.5312 20.3017C16.8805 20.3017 16.3438 19.7637 16.3438 19.1034H15.8438C15.8438 20.0363 16.6008 20.8017 17.5312 20.8017V20.3017ZM18.7188 19.1034C18.7188 19.7637 18.182 20.3017 17.5312 20.3017V20.8017C18.4617 20.8017 19.2188 20.0363 19.2188 19.1034H18.7188ZM17.5312 17.9052C18.182 17.9052 18.7188 18.4432 18.7188 19.1034H19.2188C19.2188 18.1706 18.4617 17.4052 17.5312 17.4052V17.9052ZM16.3438 19.1034C16.3438 18.4432 16.8805 17.9052 17.5312 17.9052V17.4052C16.6008 17.4052 15.8438 18.1706 15.8438 19.1034H16.3438Z" fill="white"/>
<path d="M11.4938 9.11035C11.2063 8.8931 10.7032 8.96552 10.4876 9.25517C10.2719 9.54483 10.3438 10.0517 10.6313 10.269L13.5063 12.4414C13.5063 12.4414 13.5063 12.4414 13.5782 12.4414C13.5782 12.4414 13.6501 12.4414 13.6501 12.5138C13.6501 12.5138 13.6501 12.5138 13.7219 12.5138C13.7219 12.5862 13.8657 12.5862 13.9376 12.5862C14.0094 12.5862 14.1532 12.5862 14.2251 12.5138C14.2251 12.5138 14.2969 12.5138 14.2969 12.4414C14.2969 12.4414 14.3688 12.4414 14.3688 12.369L17.2438 10.1966C17.5313 9.97931 17.6032 9.47241 17.3876 9.18276C17.1719 8.8931 16.6688 8.82069 16.3813 9.03793L14.6563 10.4138V2.44828C14.6563 2.01379 14.3688 1.72414 13.9376 1.72414C13.5063 1.72414 13.2188 2.01379 13.2188 2.44828V10.4138L11.4938 9.11035Z" fill="black" stroke="white" stroke-width="0.5"/>
</svg>
